<svg xmlns="http://www.w3.org/2000/svg" viewBox="0 0 880 256" width="880" height="256" role="img" aria-label="rustmatrix logo">
  <title>rustmatrix</title>
  <defs>
    <linearGradient id="sky" x1="0" y1="0" x2="0" y2="1">
      <stop offset="0%"   stop-color="#1a2442"/>
      <stop offset="100%" stop-color="#0c1428"/>
    </linearGradient>
    <linearGradient id="drop" x1="0" y1="0" x2="0" y2="1">
      <stop offset="0%"   stop-color="#8FD8FF"/>
      <stop offset="55%"  stop-color="#4EA8DC"/>
      <stop offset="100%" stop-color="#1E5A9A"/>
    </linearGradient>
    <radialGradient id="dish" cx="45%" cy="65%" r="65%">
      <stop offset="0%"   stop-color="#F0F4FA"/>
      <stop offset="70%"  stop-color="#A6B3C8"/>
      <stop offset="100%" stop-color="#5A6A85"/>
    </radialGradient>
    <linearGradient id="sat" x1="0" y1="0" x2="0" y2="1">
      <stop offset="0%"   stop-color="#EEF1F8"/>
      <stop offset="100%" stop-color="#B0B9CC"/>
    </linearGradient>
  </defs>


<!-- ================= Icon (embedded 256x256 tile on the left) ================= -->
  <g>
    <rect x="3" y="3" width="250" height="250" rx="41" ry="41"
          fill="url(#sky)" stroke="#ffffff" stroke-width="6"/>

    <g stroke="#2C3E6B" stroke-width="1" opacity="0.22">
      <path d="M 48 80  H 208"/>
      <path d="M 48 128 H 208"/>
      <path d="M 48 176 H 208"/>
      <path d="M 80  48 V 208"/>
      <path d="M 128 48 V 208"/>
      <path d="M 176 48 V 208"/>
    </g>

    <!-- Satellite (top-right) -->
    <g stroke="#0A1020" stroke-linejoin="round" stroke-linecap="round">
      <g stroke-width="2">
        <rect x="158" y="52" width="28" height="14" fill="#2C4C7C"/>
        <rect x="210" y="52" width="28" height="14" fill="#2C4C7C"/>
        <g stroke="#0A1020" stroke-width="1">
          <line x1="158" y1="57" x2="186" y2="57"/>
          <line x1="158" y1="61" x2="186" y2="61"/>
          <line x1="172" y1="52" x2="172" y2="66"/>
          <line x1="210" y1="57" x2="238" y2="57"/>
          <line x1="210" y1="61" x2="238" y2="61"/>
          <line x1="224" y1="52" x2="224" y2="66"/>
        </g>
        <line x1="186" y1="59" x2="192" y2="59" stroke-width="2"/>
        <line x1="204" y1="59" x2="210" y2="59" stroke-width="2"/>
      </g>
      <rect x="192" y="50" width="12" height="20" rx="2" fill="url(#sat)" stroke-width="2.5"/>
      <path d="M 193 50 L 198 40 L 203 50 Z" fill="#E8EEF4" stroke-width="2"/>
      <circle cx="198" cy="38" r="2.2" fill="#FFD66B" stroke-width="1.5"/>
    </g>

    <!-- Satellite scanning beam toward drop -->
    <g>
      <path d="M 196 68 L 138 112 L 154 102 Z" fill="#9FD8FF" opacity="0.18"/>
      <line x1="196" y1="69" x2="145" y2="108"
            stroke="#9FD8FF" stroke-width="2" stroke-linecap="round"
            stroke-dasharray="3 4" opacity="0.85"/>
    </g>

    <!-- Weather radar (bottom-left) -->
    <g stroke="#0A1020" stroke-linejoin="round" stroke-linecap="round">
      <rect x="34" y="214" width="40" height="6" rx="2" fill="#4A5A75" stroke-width="2"/>
      <rect x="48" y="176" width="12" height="38" fill="#6A7A95" stroke-width="2"/>
      <line x1="48" y1="190" x2="60" y2="190" stroke-width="1.2"/>
      <line x1="48" y1="202" x2="60" y2="202" stroke-width="1.2"/>
      <g transform="translate(54 174) rotate(35)">
        <ellipse cx="0" cy="0" rx="22" ry="8" fill="url(#dish)" stroke-width="2.5"/>
        <ellipse cx="0" cy="-1" rx="18" ry="5" fill="none" stroke="#0A1020" stroke-width="1" opacity="0.35"/>
        <rect x="-2" y="-14" width="4" height="12" fill="#6A7A95" stroke-width="1.8"/>
        <circle cx="0" cy="-15" r="2.2" fill="#FFD66B" stroke-width="1.5"/>
      </g>
    </g>

    <g fill="none" stroke="#F0AD3D" stroke-linecap="round" stroke-width="2.6">
      <path d="M 75.5 179.5 A 25 25 0 0 0 64.5 151.3"  opacity="0.95"/>
      <path d="M 89.6 174.4 A 40 40 0 0 0 72.0 129.2"  opacity="0.75"/>
      <path d="M 103.7 169.3 A 55 55 0 0 0 79.5 107.2" opacity="0.55"/>
    </g>

    <!-- Raindrop: Beard-Chuang 4 mm oblate shape, scaled to 67%. -->
    <g transform="translate(128 128) scale(0.67) translate(-128 -128)">
      <ellipse cx="128" cy="128" rx="62" ry="50" fill="#9FD8FF" opacity="0.12"/>
      <path d="M 128 85
               C 160 85, 184 105, 184 128
               C 184 152, 170 170, 128 170
               C 86 170,  72 152,  72 128
               C 72 105,  96  85, 128  85 Z"
            fill="url(#drop)" stroke="#0B3B74" stroke-width="3.5"
            stroke-linejoin="round"/>
      <path d="M 96 112 Q 88 128 98 140 Q 108 128 106 112 Z"
            fill="#E3F4FF" opacity="0.55"/>
      <circle cx="102" cy="104" r="2.4" fill="#FFFFFF" opacity="0.9"/>

      <g transform="translate(128 132)" opacity="0.48">
        <g fill="#2A0A00" stroke="#2A0A00">
          <g stroke-width="0">
            <rect x="-3.5" y="-27" width="7" height="7" rx="1.2"/>
            <g transform="rotate(45)"><rect x="-3.5" y="-27" width="7" height="7" rx="1.2"/></g>
            <g transform="rotate(90)"><rect x="-3.5" y="-27" width="7" height="7" rx="1.2"/></g>
            <g transform="rotate(135)"><rect x="-3.5" y="-27" width="7" height="7" rx="1.2"/></g>
            <g transform="rotate(180)"><rect x="-3.5" y="-27" width="7" height="7" rx="1.2"/></g>
            <g transform="rotate(225)"><rect x="-3.5" y="-27" width="7" height="7" rx="1.2"/></g>
            <g transform="rotate(270)"><rect x="-3.5" y="-27" width="7" height="7" rx="1.2"/></g>
            <g transform="rotate(315)"><rect x="-3.5" y="-27" width="7" height="7" rx="1.2"/></g>
          </g>
          <circle cx="0" cy="0" r="20" fill="none" stroke-width="3"/>
          <circle cx="0" cy="0" r="14.5" fill="none" stroke-width="1.6"/>
          <path d="M -6 -9 V 9
                   M -6 -9 H 2 A 4.5 4.5 0 0 1 2 0 H -6
                   M 1 0 L 6 9"
                fill="none" stroke-width="3"
                stroke-linecap="round" stroke-linejoin="round"/>
        </g>
      </g>
    </g>

    <!-- Fading drop-shaped waves — scattered radiation, echoing the drop outline. -->
    <g fill="none" stroke="#9FD8FF" stroke-linejoin="round">
      <path d="M 128 85 C 160 85, 184 105, 184 128 C 184 152, 170 170, 128 170 C 86 170, 72 152, 72 128 C 72 105, 96 85, 128 85 Z"
            transform="translate(128 128) scale(0.88) translate(-128 -128)"
            stroke-width="2.4" opacity="0.50"/>
      <path d="M 128 85 C 160 85, 184 105, 184 128 C 184 152, 170 170, 128 170 C 86 170, 72 152, 72 128 C 72 105, 96 85, 128 85 Z"
            transform="translate(128 128) scale(1.08) translate(-128 -128)"
            stroke-width="1.9" opacity="0.28"/>
      <path d="M 128 85 C 160 85, 184 105, 184 128 C 184 152, 170 170, 128 170 C 86 170, 72 152, 72 128 C 72 105, 96 85, 128 85 Z"
            transform="translate(128 128) scale(1.28) translate(-128 -128)"
            stroke-width="1.4" opacity="0.14"/>
    </g>

    <!-- Matrix brackets (Computer Modern style: thick vertical body + thin serifs). -->
    <g stroke="#E6EEF8" fill="none" stroke-linecap="butt" stroke-linejoin="miter">
      <path d="M 34 34 V 72" stroke-width="8"/>
      <path d="M 30 34 H 58" stroke-width="3.5"/>
      <path d="M 222 34 V 72" stroke-width="8"/>
      <path d="M 198 34 H 226" stroke-width="3.5"/>
      <path d="M 34 184 V 222" stroke-width="8"/>
      <path d="M 30 222 H 58" stroke-width="3.5"/>
      <path d="M 222 184 V 222" stroke-width="8"/>
      <path d="M 198 222 H 226" stroke-width="3.5"/>
    </g>
  </g>

  <!-- ================= Wordmark ================= -->
  <!-- Wordmark: Alegreya Bold, rendered to paths. Fill matches the drop gradient mid-stop. -->
  <g transform="translate(272 168) scale(0.130000 -0.130000)"
       fill="#4EA8DC" stroke="#ffffff" stroke-width="28"
       paint-order="stroke fill" stroke-linejoin="round" stroke-linecap="round">
        <path transform="translate(0 0)" d="M44.11737060546875 56.7454833984375Q73.6663818359375 59.29449462890625 84.11737060546875 73.31405639648438Q94.568359375 87.3336181640625 94.568359375 125.76483154296875V324.568359375Q94.568359375 358.92132568359375 85.568359375 371.568359375Q76.568359375 384.21539306640625 52.0584716796875 384.21539306640625Q45.8624267578125 384.21539306640625 39.587921142578125 383.3918762207031Q33.31341552734375 382.568359375 33.31341552734375 382.568359375L28.31341552734375 389.568359375L33.568359375 440.411865234375Q76.74505615234375 447.3138427734375 118.1177978515625 454.9903259277344Q159.49053955078125 462.66680908203125 186.80438232421875 468.1177978515625Q214.11822509765625 473.56878662109375 214.11822509765625 473.56878662109375L223.3731689453125 464.86285400390625Q223.3731689453125 464.86285400390625 220.8731689453125 450.4413146972656Q218.3731689453125 436.019775390625 216.14767456054688 414.5492248535156Q213.92218017578125 393.07867431640625 213.02020263671875 370.88262939453125L218.82415771484375 367.431640625Q250.72613525390625 413.98065185546875 288.02020263671875 440.1472473144531Q325.31427001953125 466.3138427734375 359.3731689453125 466.3138427734375Q374.5692138671875 466.3138427734375 384.275146484375 464.5393371582031Q393.9810791015625 462.76483154296875 393.9810791015625 462.76483154296875L397.883056640625 455.15692138671875Q397.883056640625 455.15692138671875 395.43206787109375 438.5Q392.9810791015625 421.84307861328125 389.3045959472656 394.93121337890625Q385.62811279296875 368.01934814453125 382.4516296386719 336.0290222167969Q379.275146484375 304.0386962890625 377.82415771484375 273.8228759765625L314.019775390625 269.9208984375Q314.019775390625 317.68572998046875 308.56878662109375 333.2151794433594Q303.1177978515625 348.74462890625 285.66680908203125 348.74462890625Q269.5296630859375 348.74462890625 251.51998901367188 337.0584716796875Q233.51031494140625 325.372314453125 217.92218017578125 304.196044921875Q217.92218017578125 304.196044921875 216.92218017578125 286.3725280761719Q215.92218017578125 268.54901123046875 214.69668579101562 241.67648315429688Q213.47119140625 214.803955078125 212.02020263671875 186.88241577148438Q210.5692138671875 158.96087646484375 209.5692138671875 137.8138427734375Q208.5692138671875 116.66680908203125 208.5692138671875 111.019775390625Q208.5692138671875 85.1375732421875 217.21624755859375 74.9415283203125Q225.86328125 64.7454833984375 248.00042724609375 64.7454833984375Q261.70635986328125 64.7454833984375 279.7848205566406 66.42196655273438Q297.86328125 68.09844970703125 297.86328125 68.09844970703125L301.11822509765625 62.29449462890625L289.86328125 -3.803955078125Q289.86328125 -3.803955078125 276.70635986328125 -3.078460693359375Q263.5494384765625 -2.35296630859375 243.26504516601562 -1.9019775390625Q222.98065185546875 -1.45098876953125 200.74526977539062 -0.725494384765625Q178.5098876953125 0 160.803955078125 0Q130.9019775390625 0 101.94110107421875 -1.0Q72.980224609375 -2 54.4703369140625 -3.225494384765625Q35.96044921875 -4.45098876953125 35.96044921875 -4.45098876953125Z"/>
        <path transform="translate(411 0)" d="M74.6663818359375 337.0782470703125Q74.6663818359375 362.17626953125 67.01934814453125 373.92132568359375Q59.372314453125 385.6663818359375 41.2742919921875 385.6663818359375Q32.372314453125 385.6663818359375 24.097808837890625 384.3428649902344Q15.82330322265625 383.01934814453125 15.82330322265625 383.01934814453125L21.62725830078125 440.76483154296875Q52.74505615234375 445.2158203125 84.5098876953125 450.66680908203125Q116.27471923828125 456.1177978515625 142.96109008789062 461.3432922363281Q169.6474609375 466.56878662109375 186.07888793945312 469.7942810058594Q202.51031494140625 473.019775390625 202.51031494140625 473.019775390625L211.667236328125 456.5098876953125Q206.21624755859375 443.96087646484375 201.49075317382812 415.16680908203125Q196.7652587890625 386.37274169921875 192.7652587890625 346.8531799316406Q188.7652587890625 307.3336181640625 186.7652587890625 262.6375732421875Q184.7652587890625 217.9415283203125 184.7652587890625 173.49053955078125Q184.7652587890625 91.72613525390625 248.07867431640625 91.72613525390625Q270.9019775390625 91.72613525390625 293.2841796875 104.4613037109375Q315.6663818359375 117.19647216796875 335.2545166015625 130.235595703125V335.62725830078125Q335.2545166015625 364.72528076171875 326.50946044921875 374.4703369140625Q317.764404296875 384.21539306640625 291.568359375 384.6663818359375Q288.4703369140625 384.6663818359375 281.8527526855469 384.3918762207031Q275.23516845703125 384.11737060546875 274.33319091796875 384.11737060546875L282.39208984375 440.86285400390625Q314.803955078125 445.3138427734375 347.2158203125 450.5393371582031Q379.627685546875 455.76483154296875 406.8630676269531 460.4903259277344Q434.09844970703125 465.2158203125 450.80438232421875 468.2158203125Q467.51031494140625 471.2158203125 467.51031494140625 471.2158203125L477.11822509765625 454.7059326171875Q469.7652587890625 439.7059326171875 463.6377868652344 391.5393371582031Q457.51031494140625 343.37274169921875 453.8338317871094 275.0101013183594Q450.1573486328125 206.6474609375 450.1573486328125 131.1573486328125Q450.1573486328125 111.86328125 459.80438232421875 100.99075317382812Q469.451416015625 90.11822509765625 485.7454833984375 90.11822509765625Q498.1375732421875 90.11822509765625 508.931640625 94.58877563476562Q519.7257080078125 99.059326171875 526.6472473144531 103.25537109375Q533.5687866210938 107.451416015625 533.5687866210938 107.451416015625L548.9217529296875 86.9415283203125Q548.9217529296875 86.9415283203125 539.7452697753906 73.58856201171875Q530.5687866210938 60.235595703125 515.2648315429688 41.5296630859375Q499.96087646484375 22.82373046875 481.803955078125 7.441314697265625Q463.64703369140625 -7.94110107421875 445.6861572265625 -12Q354.31341552734375 -12 344.0584716796875 65.39208984375L336.3525390625 69.196044921875Q297.372314453125 33.0980224609375 266.53912353515625 11.0Q235.7059326171875 -11.0980224609375 223.5098876953125 -11.0980224609375Q148.23516845703125 -11.0980224609375 108.32330322265625 20.931427001953125Q68.41143798828125 52.96087646484375 68.41143798828125 113.9217529296875Z"/>
        <path transform="translate(957 0)" d="M169.64703369140625 -12Q130.03912353515625 -12 99.8822021484375 -5.14703369140625Q69.72528076171875 1.7059326171875 53.195831298828125 8.284393310546875Q36.6663818359375 14.86285400390625 36.6663818359375 14.86285400390625L30.50946044921875 25.019775390625Q32.96044921875 39.17669677734375 35.46044921875 62.87274169921875Q37.96044921875 86.56878662109375 40.46044921875 112.3138427734375Q42.96044921875 138.05889892578125 43.8624267578125 156.76483154296875L99.15692138671875 162.2158203125Q99.60791015625 111.09844970703125 121.83340454101562 85.90240478515625Q144.05889892578125 60.70635986328125 187.588134765625 60.70635986328125Q216.568359375 60.70635986328125 235.80352783203125 73.19647216796875Q255.0386962890625 85.68658447265625 255.0386962890625 104.82373046875Q255.0386962890625 118.66680908203125 246.61715698242188 129.96087646484375Q238.19561767578125 141.25494384765625 216.80352783203125 154.64703369140625Q195.41143798828125 168.03912353515625 154.82330322265625 187.0782470703125Q95.11737060546875 214.72528076171875 67.98989868164062 246.52923583984375Q40.8624267578125 278.33319091796875 40.8624267578125 320.196044921875Q40.8624267578125 365.7059326171875 67.11737060546875 399.96087646484375Q93.372314453125 434.2158203125 140.10769653320312 453.6177978515625Q186.84307861328125 473.019775390625 247.411865234375 473.019775390625Q296.07867431640625 473.019775390625 327.38262939453125 464.1177978515625Q358.68658447265625 455.2158203125 358.68658447265625 455.2158203125L363.843505859375 444.803955078125Q363.843505859375 444.803955078125 360.5690002441406 426.2254943847656Q357.29449462890625 407.64703369140625 352.79449462890625 378.34307861328125Q348.29449462890625 349.03912353515625 345.29449462890625 315.588134765625L288.9019775390625 312.13714599609375Q288.9019775390625 312.13714599609375 289.45098876953125 318.8527526855469Q290 325.568359375 290 329.8624267578125Q289.54901123046875 365.41143798828125 272.75494384765625 381.6859436035156Q255.96087646484375 397.96044921875 220.17669677734375 397.96044921875Q193.39251708984375 397.96044921875 175.75537109375 385.568359375Q158.11822509765625 373.17626953125 158.11822509765625 354.23516845703125Q158.11822509765625 335.196044921875 174.33383178710938 319.15692138671875Q190.5494384765625 303.1177978515625 227.07867431640625 284.98065185546875Q285.1375732421875 257.88262939453125 316.99053955078125 235.38262939453125Q348.843505859375 212.88262939453125 361.5690002441406 190.07867431640625Q374.29449462890625 167.27471923828125 374.29449462890625 137.3138427734375Q374.29449462890625 95.7059326171875 346.99053955078125 61.578460693359375Q319.68658447265625 27.45098876953125 273.4512023925781 7.725494384765625Q227.2158203125 -12 169.64703369140625 -12Z"/>
        <path transform="translate(1365 0)" d="M205.54901123046875 -12Q134.84307861328125 -12 101.8822021484375 17.75494384765625Q68.92132568359375 47.5098876953125 68.92132568359375 111.25494384765625V334.2545166015625Q68.92132568359375 365.31341552734375 58.048797607421875 376.31341552734375Q47.17626953125 387.31341552734375 14.62725830078125 387.8624267578125L5.21539306640625 395.21539306640625L11.568359375 443.7059326171875Q43.6861572265625 458.86285400390625 73.85296630859375 477.2942810058594Q104.019775390625 495.7257080078125 127.60812377929688 512.2551574707031Q151.19647216796875 528.7846069335938 165.02987670898438 539.6375732421875Q178.86328125 550.4905395507812 178.86328125 550.4905395507812L206.9810791015625 536.1766967773438Q206.9810791015625 536.1766967773438 203.35360717773438 513.7942810058594Q199.72613525390625 491.411865234375 195.82415771484375 449.9019775390625L314.411865234375 452.9019775390625L318.3138427734375 448.0980224609375L308.411865234375 380.6663818359375L190.02020263671875 383.6663818359375Q187.47119140625 340.72528076171875 185.69668579101562 286.5195617675781Q183.92218017578125 232.3138427734375 183.92218017578125 166.1375732421875Q183.92218017578125 123.25537109375 198.94174194335938 104.28482055664062Q213.9613037109375 85.31427001953125 248.39251708984375 85.31427001953125Q269.78460693359375 85.31427001953125 288.8041687011719 92.28482055664062Q307.82373046875 99.25537109375 307.82373046875 99.25537109375L320.5296630859375 66.9415283203125Q320.5296630859375 66.9415283203125 307.17669677734375 55.010101318359375Q293.82373046875 43.07867431640625 274.519775390625 27.47076416015625Q255.2158203125 11.86285400390625 236.23538208007812 -0.068572998046875Q217.25494384765625 -12 205.54901123046875 -12Z"/>
        <path transform="translate(1697 0)" d="M318.6861572265625 53.80438232421875Q342.82330322265625 59.09844970703125 353.568359375 72.343505859375Q364.31341552734375 85.58856201171875 364.764404296875 110.235595703125L367.8624267578125 282.52923583984375Q368.31341552734375 327.11737060546875 352.22528076171875 348.70550537109375Q336.13714599609375 370.29364013671875 302.9019775390625 370.29364013671875Q286.56878662109375 370.29364013671875 269.235595703125 363.2250671386719Q251.90240478515625 356.156494140625 237.58877563476562 347.31341552734375Q223.275146484375 338.4703369140625 214.62811279296875 331.82330322265625Q213.1771240234375 304.92132568359375 211.45162963867188 270.7742919921875Q209.72613525390625 236.62725830078125 208.22613525390625 203.23516845703125Q206.72613525390625 169.84307861328125 205.72613525390625 143.9019775390625Q204.72613525390625 117.96087646484375 204.72613525390625 107.019775390625Q204.72613525390625 81.431640625 211.64767456054688 71.6375732421875Q218.5692138671875 61.843505859375 235.31427001953125 61.843505859375Q241.60833740234375 61.843505859375 251.67691040039062 62.618011474609375Q261.7454833984375 63.39251708984375 261.7454833984375 63.39251708984375L264.19647216796875 58.9415283203125L253.843505859375 -3.45098876953125Q253.843505859375 -3.45098876953125 235.68658447265625 -2.45098876953125Q217.5296630859375 -1.45098876953125 193.14724731445312 -0.725494384765625Q168.76483154296875 0 148.86285400390625 0Q123.35296630859375 0 95.84307861328125 -0.725494384765625Q68.33319091796875 -1.45098876953125 49.401763916015625 -2.4019775390625Q30.4703369140625 -3.35296630859375 30.4703369140625 -3.35296630859375L39.17626953125 58.39251708984375Q68.17626953125 60.9415283203125 79.45077514648438 72.49053955078125Q90.72528076171875 84.03955078125 90.72528076171875 112.03955078125V324.01934814453125Q90.72528076171875 358.4703369140625 80.40176391601562 371.068359375Q70.0782470703125 383.6663818359375 42.17626953125 383.6663818359375H28.92132568359375L25.01934814453125 389.01934814453125L30.2742919921875 440.96087646484375Q75.64703369140625 447.86285400390625 117.56878662109375 455.26483154296875Q159.49053955078125 462.66680908203125 186.52987670898438 468.1177978515625Q213.5692138671875 473.56878662109375 213.5692138671875 473.56878662109375L222.275146484375 463.76483154296875Q222.275146484375 463.76483154296875 217.54965209960938 442.1863708496094Q212.82415771484375 420.60791015625 210.82415771484375 394.60791015625L213.72613525390625 391.60791015625Q225.883056640625 401.66680908203125 244.20657348632812 415.519775390625Q262.53009033203125 429.37274169921875 282.0986633300781 442.6472473144531Q301.667236328125 455.9217529296875 318.60833740234375 464.47076416015625Q335.5494384765625 473.019775390625 344.9415283203125 473.019775390625Q401.059326171875 473.019775390625 437.0397644042969 451.8432922363281Q473.02020263671875 430.66680908203125 486.02020263671875 389.96087646484375Q496.53009033203125 399.47076416015625 514.5791015625 413.32373046875Q532.6281127929688 427.17669677734375 553.0202026367188 440.7257080078125Q573.4122924804688 454.27471923828125 591.1769104003906 463.6472473144531Q608.9415283203125 473.019775390625 619.431640625 473.019775390625Q690.5494384765625 473.019775390625 730.0298767089844 438.6962585449219Q769.5103149414062 404.37274169921875 769.5103149414062 343.56878662109375Q769.5103149414062 329.2158203125 766.8338317871094 298.0883483886719Q764.1573486328125 266.96087646484375 760.4808654785156 229.73538208007812Q756.8043823242188 192.5098876953125 754.1278991699219 159.63735961914062Q751.451416015625 126.76483154296875 751.451416015625 107.9217529296875Q751.451416015625 81.431640625 758.8239440917969 70.96109008789062Q766.1964721679688 60.49053955078125 783.3925170898438 60.49053955078125Q791.9415283203125 60.49053955078125 802.9120788574219 61.265045166015625Q813.8826293945312 62.03955078125 813.8826293945312 62.03955078125L815.8826293945312 58.03955078125L805.9806518554688 -3.45098876953125Q805.9806518554688 -3.45098876953125 794.5002136230469 -2.95098876953125Q783.019775390625 -2.45098876953125 765.8628540039062 -1.725494384765625Q748.7059326171875 -1 730.2745056152344 -0.5Q711.8430786132812 0 697.39208984375 0Q682.7450561523438 0 664.39208984375 -0.774505615234375Q646.0391235351562 -1.54901123046875 628.7841796875 -2.323516845703125Q611.5292358398438 -3.0980224609375 600.4507751464844 -3.872528076171875Q589.372314453125 -4.64703369140625 589.372314453125 -4.64703369140625L595.7252807617188 57.09844970703125Q619.3134155273438 60.7454833984375 629.0584716796875 72.16702270507812Q638.8035278320312 83.58856201171875 639.2545166015625 110.235595703125L642.3525390625 282.52923583984375Q642.8035278320312 327.11737060546875 626.7153930664062 348.70550537109375Q610.6272583007812 370.29364013671875 577.39208984375 370.29364013671875Q561.0588989257812 370.29364013671875 544.5492248535156 363.99957275390625Q528.03955078125 357.70550537109375 513.951416015625 348.8624267578125Q499.86328125 340.01934814453125 490.667236328125 333.372314453125L478.31427001953125 107.9217529296875Q478.31427001953125 82.5296630859375 485.1867980957031 71.51010131835938Q492.059326171875 60.49053955078125 508.80438232421875 60.49053955078125Q517.3533935546875 60.49053955078125 527.1964721679688 61.265045166015625Q537.03955078125 62.03955078125 537.03955078125 62.03955078125L539.03955078125 58.03955078125L528.7846069335938 -3.45098876953125Q528.7846069335938 -3.45098876953125 518.0296630859375 -2.95098876953125Q507.27471923828125 -2.45098876953125 490.8432922363281 -1.725494384765625Q474.411865234375 -1 456.4314270019531 -0.5Q438.45098876953125 0 424 0Q409.35296630859375 0 390.5 -1.323516845703125Q371.64703369140625 -2.64703369140625 353.6175842285156 -3.970550537109375Q335.588134765625 -5.2940673828125 324.0096740722656 -6.617584228515625Q312.43121337890625 -7.94110107421875 312.43121337890625 -7.94110107421875Z"/>
        <path transform="translate(2535 0)" d="M381.9217529296875 -12Q337.86285400390625 -12 312.2059326171875 7.823516845703125Q286.54901123046875 27.64703369140625 282.0980224609375 65.39208984375L274.4901123046875 68.196044921875Q254.54901123046875 47.803955078125 233.72549438476562 30.529449462890625Q212.9019775390625 13.25494384765625 194.82351684570312 2.627471923828125Q176.74505615234375 -8 164.03912353515625 -8Q125.23516845703125 -8 94.20571899414062 10.931427001953125Q63.17626953125 29.86285400390625 45.32330322265625 62.82373046875Q27.4703369140625 95.78460693359375 27.4703369140625 136.7454833984375Q27.4703369140625 167.5494384765625 43.548797607421875 190.451416015625Q59.62725830078125 213.3533935546875 85.43121337890625 219.90240478515625L278.13714599609375 264.68658447265625L278.6861572265625 289.2940673828125Q278.6861572265625 332.0782470703125 256.13714599609375 356.01934814453125Q233.588134765625 379.96044921875 193.39208984375 379.96044921875Q165.39208984375 379.96044921875 133.26461791992188 366.2839660644531Q101.13714599609375 352.60748291015625 75.64703369140625 333.11737060546875L67.4901123046875 337.4703369140625L49.62725830078125 397.15692138671875Q79.23516845703125 413.5098876953125 115.2940673828125 431.36285400390625Q151.35296630859375 449.2158203125 183.73538208007812 461.1177978515625Q216.1177978515625 473.019775390625 232.9217529296875 473.019775390625Q291.3533935546875 473.019775390625 327.9907531738281 455.0393371582031Q364.62811279296875 437.05889892578125 381.8045959472656 406.5294494628906Q398.9810791015625 376 398.9810791015625 336.803955078125Q398.9810791015625 324.25494384765625 396.03009033203125 297.05889892578125Q393.0791015625 269.86285400390625 389.0791015625 237.74526977539062Q385.0791015625 205.627685546875 382.12811279296875 176.68658447265625Q379.1771240234375 147.7454833984375 379.1771240234375 130.70635986328125Q379.1771240234375 111.86328125 388.82415771484375 100.99075317382812Q398.47119140625 90.11822509765625 414.7652587890625 90.11822509765625Q428.1573486328125 90.11822509765625 441.7749328613281 96.13778686523438Q455.39251708984375 102.1573486328125 463.03955078125 107.451416015625L478.39251708984375 86.49053955078125Q468.1375732421875 68.5296630859375 452.1571350097656 47.294281005859375Q436.17669677734375 26.05889892578125 418.0982360839844 9.578460693359375Q400.019775390625 -6.9019775390625 381.9217529296875 -12ZM200.88262939453125 87.059326171875Q216.27471923828125 87.059326171875 236.58834838867188 95.37295532226562Q256.9019775390625 103.68658447265625 272.94110107421875 116.1177978515625L276.13714599609375 210.9019775390625L169.00042724609375 181.17669677734375Q144.9613037109375 174.431640625 144.9613037109375 148.19647216796875Q144.9613037109375 122.451416015625 160.40240478515625 104.75537109375Q175.843505859375 87.059326171875 200.88262939453125 87.059326171875Z"/>
        <path transform="translate(3018 0)" d="M205.54901123046875 -12Q134.84307861328125 -12 101.8822021484375 17.75494384765625Q68.92132568359375 47.5098876953125 68.92132568359375 111.25494384765625V334.2545166015625Q68.92132568359375 365.31341552734375 58.048797607421875 376.31341552734375Q47.17626953125 387.31341552734375 14.62725830078125 387.8624267578125L5.21539306640625 395.21539306640625L11.568359375 443.7059326171875Q43.6861572265625 458.86285400390625 73.85296630859375 477.2942810058594Q104.019775390625 495.7257080078125 127.60812377929688 512.2551574707031Q151.19647216796875 528.7846069335938 165.02987670898438 539.6375732421875Q178.86328125 550.4905395507812 178.86328125 550.4905395507812L206.9810791015625 536.1766967773438Q206.9810791015625 536.1766967773438 203.35360717773438 513.7942810058594Q199.72613525390625 491.411865234375 195.82415771484375 449.9019775390625L314.411865234375 452.9019775390625L318.3138427734375 448.0980224609375L308.411865234375 380.6663818359375L190.02020263671875 383.6663818359375Q187.47119140625 340.72528076171875 185.69668579101562 286.5195617675781Q183.92218017578125 232.3138427734375 183.92218017578125 166.1375732421875Q183.92218017578125 123.25537109375 198.94174194335938 104.28482055664062Q213.9613037109375 85.31427001953125 248.39251708984375 85.31427001953125Q269.78460693359375 85.31427001953125 288.8041687011719 92.28482055664062Q307.82373046875 99.25537109375 307.82373046875 99.25537109375L320.5296630859375 66.9415283203125Q320.5296630859375 66.9415283203125 307.17669677734375 55.010101318359375Q293.82373046875 43.07867431640625 274.519775390625 27.47076416015625Q255.2158203125 11.86285400390625 236.23538208007812 -0.068572998046875Q217.25494384765625 -12 205.54901123046875 -12Z"/>
        <path transform="translate(3350 0)" d="M44.11737060546875 56.7454833984375Q73.6663818359375 59.29449462890625 84.11737060546875 73.31405639648438Q94.568359375 87.3336181640625 94.568359375 125.76483154296875V324.568359375Q94.568359375 358.92132568359375 85.568359375 371.568359375Q76.568359375 384.21539306640625 52.0584716796875 384.21539306640625Q45.8624267578125 384.21539306640625 39.587921142578125 383.3918762207031Q33.31341552734375 382.568359375 33.31341552734375 382.568359375L28.31341552734375 389.568359375L33.568359375 440.411865234375Q76.74505615234375 447.3138427734375 118.1177978515625 454.9903259277344Q159.49053955078125 462.66680908203125 186.80438232421875 468.1177978515625Q214.11822509765625 473.56878662109375 214.11822509765625 473.56878662109375L223.3731689453125 464.86285400390625Q223.3731689453125 464.86285400390625 220.8731689453125 450.4413146972656Q218.3731689453125 436.019775390625 216.14767456054688 414.5492248535156Q213.92218017578125 393.07867431640625 213.02020263671875 370.88262939453125L218.82415771484375 367.431640625Q250.72613525390625 413.98065185546875 288.02020263671875 440.1472473144531Q325.31427001953125 466.3138427734375 359.3731689453125 466.3138427734375Q374.5692138671875 466.3138427734375 384.275146484375 464.5393371582031Q393.9810791015625 462.76483154296875 393.9810791015625 462.76483154296875L397.883056640625 455.15692138671875Q397.883056640625 455.15692138671875 395.43206787109375 438.5Q392.9810791015625 421.84307861328125 389.3045959472656 394.93121337890625Q385.62811279296875 368.01934814453125 382.4516296386719 336.0290222167969Q379.275146484375 304.0386962890625 377.82415771484375 273.8228759765625L314.019775390625 269.9208984375Q314.019775390625 317.68572998046875 308.56878662109375 333.2151794433594Q303.1177978515625 348.74462890625 285.66680908203125 348.74462890625Q269.5296630859375 348.74462890625 251.51998901367188 337.0584716796875Q233.51031494140625 325.372314453125 217.92218017578125 304.196044921875Q217.92218017578125 304.196044921875 216.92218017578125 286.3725280761719Q215.92218017578125 268.54901123046875 214.69668579101562 241.67648315429688Q213.47119140625 214.803955078125 212.02020263671875 186.88241577148438Q210.5692138671875 158.96087646484375 209.5692138671875 137.8138427734375Q208.5692138671875 116.66680908203125 208.5692138671875 111.019775390625Q208.5692138671875 85.1375732421875 217.21624755859375 74.9415283203125Q225.86328125 64.7454833984375 248.00042724609375 64.7454833984375Q261.70635986328125 64.7454833984375 279.7848205566406 66.42196655273438Q297.86328125 68.09844970703125 297.86328125 68.09844970703125L301.11822509765625 62.29449462890625L289.86328125 -3.803955078125Q289.86328125 -3.803955078125 276.70635986328125 -3.078460693359375Q263.5494384765625 -2.35296630859375 243.26504516601562 -1.9019775390625Q222.98065185546875 -1.45098876953125 200.74526977539062 -0.725494384765625Q178.5098876953125 0 160.803955078125 0Q130.9019775390625 0 101.94110107421875 -1.0Q72.980224609375 -2 54.4703369140625 -3.225494384765625Q35.96044921875 -4.45098876953125 35.96044921875 -4.45098876953125Z"/>
        <path transform="translate(3761 0)" d="M27.31341552734375 -11.0980224609375 34.92132568359375 51.5494384765625Q64.4703369140625 56.843505859375 77.92132568359375 71.89251708984375Q91.372314453125 86.9415283203125 91.372314453125 113.843505859375V330.41143798828125Q91.372314453125 361.568359375 82.14682006835938 373.8918762207031Q72.92132568359375 386.21539306640625 49.41143798828125 386.21539306640625Q43.21539306640625 386.21539306640625 34.489898681640625 384.4408874511719Q25.764404296875 382.6663818359375 25.764404296875 382.6663818359375L31.568359375 440.411865234375Q65.588134765625 444.86285400390625 99.2059326171875 450.5393371582031Q132.82373046875 456.2158203125 160.36306762695312 461.3923034667969Q187.90240478515625 466.56878662109375 204.51031494140625 469.7942810058594Q221.11822509765625 473.019775390625 221.11822509765625 473.019775390625L229.72613525390625 456.5098876953125Q224.82415771484375 446.05889892578125 220.32415771484375 414.7158203125Q215.82415771484375 383.37274169921875 212.82415771484375 336.57867431640625Q209.82415771484375 289.78460693359375 208.04965209960938 230.60812377929688Q206.275146484375 171.431640625 206.275146484375 105.2158203125Q206.275146484375 81.627685546875 213.14767456054688 71.28460693359375Q220.02020263671875 60.9415283203125 236.7652587890625 60.9415283203125Q244.86328125 60.9415283203125 255.60833740234375 61.9415283203125Q266.3533935546875 62.9415283203125 266.3533935546875 62.9415283203125L268.80438232421875 58.49053955078125L259.00042724609375 -3.45098876953125Q259.00042724609375 -3.45098876953125 247.79449462890625 -2.95098876953125Q236.58856201171875 -2.45098876953125 219.48065185546875 -1.725494384765625Q202.37274169921875 -1 183.49032592773438 -0.5Q164.60791015625 0 149.25494384765625 0Q124.64703369140625 0 96.13714599609375 -2.774505615234375Q67.62725830078125 -5.54901123046875 47.4703369140625 -8.323516845703125Q27.31341552734375 -11.0980224609375 27.31341552734375 -11.0980224609375ZM140.56878662109375 558.548583984375Q106.0980224609375 558.548583984375 88.6861572265625 578.3819885253906Q71.2742919921875 598.2153930664062 71.2742919921875 629.39208984375Q71.2742919921875 664.2158203125 93.00967407226562 686.4512023925781Q114.74505615234375 708.6865844726562 149.66680908203125 708.6865844726562Q182.68658447265625 708.6865844726562 200.59844970703125 688.9021911621094Q218.51031494140625 669.1177978515625 218.51031494140625 637.8430786132812Q218.51031494140625 603.0193481445312 197.27493286132812 580.7839660644531Q176.03955078125 558.548583984375 140.56878662109375 558.548583984375Z"/>
        <path transform="translate(4053 0)" d="M249.6861572265625 -5.54901123046875 246.33319091796875 -0.54901123046875 253.6861572265625 48.03955078125Q275.0782470703125 49.03955078125 283.9997863769531 53.363067626953125Q292.92132568359375 57.68658447265625 292.92132568359375 66.3336181640625Q292.92132568359375 71.431640625 290.0487976074219 78.17669677734375Q287.17626953125 84.9217529296875 279.980224609375 95.2158203125L220.05889892578125 177.372314453125Q206.1177978515625 159.8822021484375 188.65713500976562 137.82351684570312Q171.19647216796875 115.76483154296875 158.43185424804688 97.127685546875Q145.667236328125 78.49053955078125 145.667236328125 69.9415283203125Q145.667236328125 59.49053955078125 153.7652587890625 55.363067626953125Q161.86328125 51.235595703125 182.90240478515625 50.1375732421875L185.80438232421875 44.3336181640625L178.90240478515625 -4Q178.90240478515625 -4 167.37295532226562 -3.5Q155.843505859375 -3 138.91207885742188 -2.0Q121.98065185546875 -1 106.2257080078125 -0.5Q90.47076416015625 0 81.47076416015625 0Q65.76483154296875 0 47.7059326171875 -0.725494384765625Q29.64703369140625 -1.45098876953125 17.215606689453125 -2.45098876953125Q4.7841796875 -3.45098876953125 4.7841796875 -3.45098876953125L1.33319091796875 3.803955078125L8.6861572265625 51.03955078125Q22.17626953125 58.3336181640625 34.048797607421875 68.15713500976562Q45.92132568359375 77.98065185546875 60.597808837890625 94.88262939453125Q75.2742919921875 111.78460693359375 97.62725830078125 138.58856201171875L178.21539306640625 234.07867431640625L110.33319091796875 328.0980224609375Q91.4901123046875 355.13714599609375 76.26461791992188 369.8822021484375Q61.03912353515625 384.62725830078125 45.03912353515625 391.9997863769531Q29.03912353515625 399.372314453125 7.2940673828125 403.372314453125L4.84307861328125 407.82330322265625L11.2940673828125 462.56878662109375Q11.2940673828125 462.56878662109375 28.44110107421875 462.2942810058594Q45.588134765625 462.019775390625 72.2940673828125 461.519775390625Q99 461.019775390625 127.17669677734375 461.019775390625Q158.431640625 461.019775390625 186.16702270507812 462.2452697753906Q213.90240478515625 463.47076416015625 231.68679809570312 464.47076416015625Q249.47119140625 465.47076416015625 249.47119140625 465.47076416015625L252.82415771484375 459.1177978515625L246.3731689453125 408.72528076171875Q208.13800048828125 408.72528076171875 208.13800048828125 389.72528076171875Q208.13800048828125 378.372314453125 214.23602294921875 367.9997863769531Q220.33404541015625 357.62725830078125 230.33404541015625 344.52923583984375L272.25537109375 285.7257080078125L319.7257080078125 348.2940673828125Q330.56878662109375 362.588134765625 337.4903259277344 373.0096740722656Q344.411865234375 383.43121337890625 344.411865234375 392.52923583984375Q344.411865234375 400.52923583984375 337.0393371582031 403.480224609375Q329.66680908203125 406.43121337890625 308.17669677734375 406.43121337890625L306.17669677734375 410.43121337890625L311.627685546875 461.019775390625H400.41229248046875Q418.47119140625 461.019775390625 437.6771240234375 462.019775390625Q456.883056640625 463.019775390625 470.4615173339844 463.519775390625Q484.03997802734375 464.019775390625 484.03997802734375 464.019775390625L487.03997802734375 458.56878662109375L481.490966796875 405.82330322265625Q459.62811279296875 394.96044921875 437.9026184082031 376.0389099121094Q416.1771240234375 357.11737060546875 395.68701171875 331.2742919921875L316.0008544921875 228.92132568359375L393.5692138671875 123.17669677734375Q419.11822509765625 88.88262939453125 440.71624755859375 72.51010131835938Q462.31427001953125 56.1375732421875 491.41229248046875 53.58856201171875L493.86328125 50.03955078125L485.60833740234375 -2Q485.60833740234375 -2 467.80438232421875 -1.5Q450.00042724609375 -1 427.1474609375 -0.5Q404.29449462890625 0 389.19647216796875 0Q375.09844970703125 0 351.8140563964844 -1.0Q328.5296630859375 -2 305.1177978515625 -2.774505615234375Q281.7059326171875 -3.54901123046875 265.696044921875 -4.54901123046875Q249.6861572265625 -5.54901123046875 249.6861572265625 -5.54901123046875Z"/>
      </g>
</svg>
